<svg width="24" height="24" viewBox="0 0 24 24" fill="none" xmlns="http://www.w3.org/2000/svg">
<path d="M18.295 7.11512C18.6844 6.72576 18.6844 6.09448 18.295 5.70512C17.9056 5.31576 17.2744 5.31576 16.885 5.70512L12.1414 10.4487C12.0633 10.5268 11.9367 10.5268 11.8586 10.4487L7.115 5.70512C6.72564 5.31576 6.09436 5.31576 5.705 5.70512C5.31564 6.09448 5.31564 6.72576 5.705 7.11512L10.3779 11.788C10.495 11.9051 10.495 12.0951 10.3779 12.2123L5.705 16.8851C5.31564 17.2745 5.31564 17.9058 5.705 18.2951C6.09436 18.6845 6.72564 18.6845 7.115 18.2951L11.8586 13.5515C11.9367 13.4734 12.0633 13.4734 12.1414 13.5515L16.885 18.2951C17.2744 18.6845 17.9056 18.6845 18.295 18.2951C18.6844 17.9058 18.6844 17.2745 18.295 16.8851L13.5514 12.1415C13.4733 12.0634 13.4733 11.9368 13.5514 11.8587L18.295 7.11512Z" fill="#0C0B0B"/>
</svg>
